<svg width="56" height="10" viewBox="0 0 56 10" fill="none" xmlns="http://www.w3.org/2000/svg">
<path d="M2.22 9L0.36 0.599999H1.488L3.132 8.064L4.896 0.599999H6.144L7.896 8.052L9.552 0.599999H10.68L8.82 9H7.116L5.52 2.232L3.924 9H2.22ZM14.4078 9.18C13.8558 9.18 13.3598 9.056 12.9198 8.808C12.4878 8.552 12.1438 8.176 11.8878 7.68C11.6398 7.176 11.5158 6.556 11.5158 5.82C11.5158 5.076 11.6398 4.456 11.8878 3.96C12.1438 3.464 12.4878 3.092 12.9198 2.844C13.3598 2.588 13.8558 2.46 14.4078 2.46C14.9598 2.46 15.4518 2.588 15.8838 2.844C16.3238 3.092 16.6718 3.464 16.9278 3.96C17.1838 4.456 17.3118 5.076 17.3118 5.82C17.3118 6.556 17.1838 7.176 16.9278 7.68C16.6718 8.176 16.3238 8.552 15.8838 8.808C15.4518 9.056 14.9598 9.18 14.4078 9.18ZM14.4078 8.244C14.9038 8.244 15.3118 8.048 15.6318 7.656C15.9518 7.256 16.1118 6.644 16.1118 5.82C16.1118 4.996 15.9518 4.388 15.6318 3.996C15.3118 3.596 14.9038 3.396 14.4078 3.396C13.9198 3.396 13.5158 3.596 13.1958 3.996C12.8758 4.388 12.7158 4.996 12.7158 5.82C12.7158 6.644 12.8758 7.256 13.1958 7.656C13.5158 8.048 13.9198 8.244 14.4078 8.244ZM19.3523 9V2.64H20.3243L20.3843 3.42C20.6323 3.14 20.9283 2.912 21.2723 2.736C21.6163 2.56 21.9803 2.468 22.3643 2.46L22.4243 3.324L22.2803 3.456C21.9123 3.464 21.5763 3.532 21.2723 3.66C20.9683 3.78 20.7123 3.948 20.5043 4.164V9H19.3523ZM23.7352 9V-7.15256e-07H24.8872V5.064L27.0592 2.64H28.3192L25.8232 5.4L28.5592 9H27.2992L25.1632 6.144L24.8872 6.444V9H23.7352ZM30.0047 9V0.599999H32.4287C33.0687 0.599999 33.6007 0.716 34.0247 0.948C34.4487 1.172 34.7647 1.484 34.9727 1.884C35.1887 2.284 35.2967 2.736 35.2967 3.24C35.2967 3.752 35.1887 4.208 34.9727 4.608C34.7647 5 34.4487 5.308 34.0247 5.532C33.6007 5.756 33.0687 5.868 32.4287 5.868H31.1567V9H30.0047ZM31.1567 4.932H32.4287C32.8847 4.932 33.2367 4.848 33.4847 4.68C33.7407 4.512 33.9207 4.3 34.0247 4.044C34.1287 3.78 34.1807 3.512 34.1807 3.24C34.1807 2.968 34.1287 2.704 34.0247 2.448C33.9207 2.184 33.7407 1.968 33.4847 1.8C33.2367 1.624 32.8847 1.536 32.4287 1.536H31.1567V4.932ZM38.0362 9.18C37.7162 9.18 37.4242 9.1 37.1602 8.94C36.9042 8.78 36.7002 8.564 36.5482 8.292C36.3962 8.02 36.3202 7.716 36.3202 7.38C36.3202 6.724 36.5442 6.212 36.9922 5.844C37.4402 5.476 38.0522 5.292 38.8282 5.292C39.0442 5.292 39.2602 5.308 39.4762 5.34C39.6922 5.372 39.9002 5.42 40.1002 5.484V4.728C40.1002 4.312 39.9922 3.988 39.7762 3.756C39.5602 3.516 39.2602 3.396 38.8762 3.396C38.2042 3.396 37.7682 3.728 37.5682 4.392L36.5722 4.056C36.8922 2.992 37.6602 2.46 38.8762 2.46C39.7082 2.46 40.3122 2.672 40.6882 3.096C41.0642 3.512 41.2522 4.196 41.2522 5.148V7.98C41.2522 8.108 41.2802 8.196 41.3362 8.244C41.4002 8.284 41.4762 8.304 41.5642 8.304C41.6282 8.304 41.6962 8.296 41.7682 8.28C41.8482 8.256 41.9162 8.228 41.9722 8.196L42.1642 8.94C42.0362 8.996 41.8962 9.048 41.7442 9.096C41.5922 9.152 41.4242 9.18 41.2402 9.18C40.9522 9.18 40.7082 9.108 40.5082 8.964C40.3162 8.82 40.2002 8.552 40.1602 8.16C39.9122 8.416 39.6082 8.652 39.2482 8.868C38.8962 9.076 38.4922 9.18 38.0362 9.18ZM38.3842 8.244C38.6882 8.244 38.9882 8.168 39.2842 8.016C39.5802 7.864 39.8522 7.664 40.1002 7.416V6.252C39.9322 6.196 39.7522 6.152 39.5602 6.12C39.3682 6.088 39.1802 6.072 38.9962 6.072C38.7322 6.072 38.4842 6.112 38.2522 6.192C38.0202 6.264 37.8322 6.388 37.6882 6.564C37.5442 6.74 37.4722 6.98 37.4722 7.284C37.4722 7.548 37.5562 7.776 37.7242 7.968C37.8922 8.152 38.1122 8.244 38.3842 8.244ZM46.2008 9.18C45.6408 9.18 45.1408 9.056 44.7008 8.808C44.2688 8.552 43.9288 8.176 43.6808 7.68C43.4328 7.176 43.3088 6.556 43.3088 5.82C43.3088 5.076 43.4328 4.456 43.6808 3.96C43.9368 3.464 44.2808 3.092 44.7128 2.844C45.1528 2.588 45.6448 2.46 46.1888 2.46C46.7328 2.46 47.1968 2.584 47.5808 2.832C47.9728 3.08 48.2568 3.488 48.4328 4.056L47.4368 4.392C47.2528 3.728 46.8448 3.396 46.2128 3.396C45.7248 3.396 45.3168 3.596 44.9888 3.996C44.6688 4.388 44.5088 4.996 44.5088 5.82C44.5088 6.644 44.6728 7.256 45.0008 7.656C45.3288 8.048 45.7448 8.244 46.2488 8.244C46.6008 8.244 46.9248 8.168 47.2208 8.016C47.5168 7.856 47.7528 7.688 47.9288 7.512L48.4448 8.136C48.1968 8.416 47.8768 8.66 47.4848 8.868C47.0928 9.076 46.6648 9.18 46.2008 9.18ZM52.5886 9.18C52.0206 9.18 51.5126 9.056 51.0646 8.808C50.6246 8.552 50.2766 8.176 50.0206 7.68C49.7726 7.176 49.6486 6.556 49.6486 5.82C49.6486 5.076 49.7726 4.456 50.0206 3.96C50.2766 3.464 50.6206 3.092 51.0526 2.844C51.4846 2.588 51.9686 2.46 52.5046 2.46C53.2646 2.46 53.8806 2.696 54.3526 3.168C54.8246 3.64 55.0606 4.356 55.0606 5.316V6.156H50.8606C50.9086 6.86 51.0926 7.384 51.4126 7.728C51.7406 8.072 52.1446 8.244 52.6246 8.244C53.0326 8.244 53.3886 8.168 53.6926 8.016C53.9966 7.856 54.2366 7.688 54.4126 7.512L54.9286 8.136C54.6806 8.416 54.3566 8.66 53.9566 8.868C53.5566 9.076 53.1006 9.18 52.5886 9.18ZM50.8726 5.316H53.9206C53.9206 4.7 53.7966 4.228 53.5486 3.9C53.3086 3.564 52.9646 3.396 52.5166 3.396C52.0846 3.396 51.7166 3.556 51.4126 3.876C51.1166 4.188 50.9366 4.668 50.8726 5.316Z" fill="#FCFDFF"/>
</svg>
